<?xml version="1.0" encoding="UTF-8"?>
<svg width="9px" height="16px" viewBox="0 0 9 16" version="1.1" xmlns="http://www.w3.org/2000/svg" xmlns:xlink="http://www.w3.org/1999/xlink">
    <!-- Generator: Sketch 52.1 (67048) - http://www.bohemiancoding.com/sketch -->
    <title>D</title>
    <desc>Created with Sketch.</desc>
    <defs>
        <linearGradient x1="50%" y1="0%" x2="50%" y2="100%" id="linearGradient-1">
            <stop stop-color="#8AFFFF" offset="0%"></stop>
            <stop stop-color="#63E4E4" offset="100%"></stop>
        </linearGradient>
    </defs>
    <g id="V1.2" stroke="none" stroke-width="1" fill="none" fill-rule="evenodd">
        <g id="2.4.4-学生答题" transform="translate(-1466.000000, -830.000000)" fill="url(#linearGradient-1)">
            <path d="M1474.86012,836.233526 C1474.86012,837.577656 1474.49634,839.038913 1473.76879,840.617341 C1473.18921,841.887482 1472.46166,843.083617 1471.58613,844.20578 C1470.80924,845.167635 1470.23584,845.728708 1469.8659,845.889017 C1469.68092,845.963006 1469.47129,846 1469.23699,846 C1468.69441,846 1468.07785,845.827362 1467.38728,845.482081 C1466.77071,845.198457 1466.30829,844.890175 1466,844.557225 L1466,831.239306 C1466.03699,830.918688 1466.22196,830.727553 1466.55491,830.665896 C1466.59191,830.653564 1466.90019,830.696724 1467.47977,830.795376 C1467.59075,830.807707 1467.95761,830.678229 1468.58035,830.406936 C1469.20309,830.135644 1469.73641,830 1470.18035,830 C1470.72293,830 1471.24085,830.14181 1471.7341,830.425434 C1472.01773,830.598074 1472.44316,830.931019 1473.0104,831.424277 C1473.83661,832.139503 1474.37302,832.891711 1474.61965,833.680925 C1474.77996,834.211178 1474.86012,835.062037 1474.86012,836.233526 Z M1471.7896,832.663584 C1471.72794,832.626589 1471.62929,832.608092 1471.49364,832.608092 C1470.84007,832.608092 1470.05704,832.891712 1469.14451,833.45896 L1469.14451,841.782659 C1469.98305,841.301732 1470.69826,840.124094 1471.29017,838.249711 C1471.79576,836.634289 1472.04855,835.166866 1472.04855,833.847399 C1472.04855,833.156837 1471.96224,832.762236 1471.7896,832.663584 Z" id="D"></path>
        </g>
    </g>
</svg>