<?xml version="1.0" encoding="UTF-8"?>
<svg width="13px" height="16px" viewBox="0 0 13 16" version="1.1" xmlns="http://www.w3.org/2000/svg" xmlns:xlink="http://www.w3.org/1999/xlink">
    <!-- Generator: Sketch 52.1 (67048) - http://www.bohemiancoding.com/sketch -->
    <title>A</title>
    <desc>Created with Sketch.</desc>
    <defs>
        <linearGradient x1="100%" y1="50%" x2="-2.22044605e-14%" y2="50%" id="linearGradient-1">
            <stop stop-color="#FF768B" offset="0%"></stop>
            <stop stop-color="#FFB667" offset="100%"></stop>
        </linearGradient>
    </defs>
    <g id="V1.2" stroke="none" stroke-width="1" fill="none" fill-rule="evenodd">
        <g id="2.4.4-学生答题" transform="translate(-1342.000000, -785.000000)" fill="url(#linearGradient-1)">
            <path d="M1354.08165,799.627497 C1354.06911,799.740306 1354.04404,800.00979 1354.00644,800.435958 C1353.99391,800.661576 1353.94377,800.830787 1353.85603,800.943596 C1353.79336,800.981199 1353.68682,801 1353.53641,801 C1353.12277,801 1352.60887,800.89346 1351.99469,800.680376 C1351.33037,800.479827 1350.87914,800.241678 1350.64099,799.965922 C1350.54071,799.853113 1350.44044,799.477089 1350.34017,798.837838 C1350.20229,797.998037 1350.04561,797.302392 1349.87013,796.750881 C1349.39383,796.813553 1348.69818,796.985898 1347.78317,797.26792 C1346.86817,797.549943 1346.2728,797.784958 1345.99704,797.972973 C1345.80903,798.511949 1345.55834,799.176259 1345.24498,799.965922 C1345.20738,800.141403 1345.16665,800.307481 1345.12278,800.46416 C1345.0789,800.620839 1344.96923,800.749314 1344.79375,800.849589 C1344.75615,800.874657 1344.69974,800.887192 1344.62454,800.887192 C1344.32371,800.887192 1343.81921,800.730515 1343.11102,800.417156 C1342.40283,800.103798 1342.03621,799.896984 1342.01114,799.79671 C1341.961,799.621229 1342.08008,799.188801 1342.36837,798.499412 C1342.76947,797.496666 1343.00135,796.882492 1343.06402,796.656874 C1342.8008,796.393653 1342.66919,796.130436 1342.66919,795.867215 C1342.66919,795.804543 1342.67546,795.735606 1342.68799,795.6604 C1342.71306,795.509987 1343.09535,795.240503 1343.83488,794.851939 L1346.26026,786.560517 C1346.29786,786.410105 1346.30413,786.134354 1346.27906,785.733255 C1346.25399,785.394828 1346.2916,785.181747 1346.39187,785.094007 C1346.45454,785.031335 1346.60495,785 1346.8431,785 C1347.43222,785 1348.27201,785.15041 1349.36249,785.451234 C1350.45298,785.752058 1351.10476,786.021542 1351.31784,786.259694 C1351.39305,787.651006 1351.67506,789.737941 1352.1639,792.520564 C1352.79062,795.954972 1353.42986,798.323926 1354.08165,799.627497 Z M1349.17448,793.911868 C1349.01153,793.122205 1348.91126,792.602038 1348.87366,792.351351 C1348.73578,791.511551 1348.64177,790.640428 1348.59164,789.737955 C1348.34095,790.352138 1348.0464,791.20446 1347.70797,792.294947 C1347.34447,793.435572 1347.15019,794.150018 1347.12513,794.438308 C1347.36328,794.338033 1348.04639,794.162555 1349.17448,793.911868 Z" id="A"></path>
        </g>
    </g>
</svg>