<?xml version="1.0" encoding="UTF-8"?>
<svg width="10px" height="16px" viewBox="0 0 10 16" version="1.1" xmlns="http://www.w3.org/2000/svg" xmlns:xlink="http://www.w3.org/1999/xlink">
    <!-- Generator: Sketch 52.1 (67048) - http://www.bohemiancoding.com/sketch -->
    <title>C</title>
    <desc>Created with Sketch.</desc>
    <defs>
        <linearGradient x1="-1.11022302e-14%" y1="50%" x2="100%" y2="50%" id="linearGradient-1">
            <stop stop-color="#69FECB" offset="0%"></stop>
            <stop stop-color="#4DF27F" offset="100%"></stop>
        </linearGradient>
    </defs>
    <g id="V1.2" stroke="none" stroke-width="1" fill="none" fill-rule="evenodd">
        <g id="2.4.4-学生答题" transform="translate(-1343.000000, -830.000000)" fill="url(#linearGradient-1)">
            <path d="M1352.6999,841.664012 C1352.66253,841.975507 1352.54416,842.224699 1352.3448,842.411596 C1351.98347,843.184104 1351.42902,843.962829 1350.68143,844.747797 C1349.87154,845.582603 1349.21741,846 1348.71902,846 C1348.64426,846 1348.57573,845.99377 1348.51343,845.98131 C1347.9652,845.806873 1347.34845,845.58883 1346.66316,845.327174 C1345.4421,844.828782 1344.50763,843.875622 1343.85972,842.467665 C1343.28657,841.196765 1343,839.720302 1343,838.038229 C1343,835.982362 1343.39248,834.169489 1344.17745,832.599554 C1345.01225,830.929941 1346.05886,830.063998 1347.3173,830.001699 C1347.80323,829.976779 1348.51654,830.225972 1349.45726,830.749283 C1350.39797,831.272595 1351.01784,831.792784 1351.31687,832.309865 C1351.61591,832.826947 1351.82149,833.957657 1351.93363,835.702028 C1351.95855,836.075822 1351.90871,836.45584 1351.78411,836.842094 C1351.6346,837.303107 1351.44147,837.51492 1351.20474,837.477541 C1350.76864,837.415242 1350.22042,837.278186 1349.56005,837.066369 C1348.76262,836.804714 1348.33277,836.58667 1348.27047,836.412233 C1348.24555,836.349934 1348.23309,836.293866 1348.23309,836.244027 C1348.23309,836.131889 1348.28604,835.991718 1348.39195,835.823511 C1348.49786,835.655303 1348.55081,835.515133 1348.55081,835.402995 C1348.61311,834.892143 1348.64426,834.412448 1348.64426,833.963895 C1348.64426,833.315986 1348.5695,832.86744 1348.41999,832.618244 C1347.6724,833.166475 1347.10548,834.082256 1346.71923,835.365615 C1346.39528,836.449618 1346.2333,837.67689 1346.2333,839.047467 C1346.2333,840.10655 1346.32675,841.050366 1346.51365,841.878942 C1346.70054,842.707519 1346.92482,843.209018 1347.18647,843.383455 C1347.31107,843.458214 1347.65682,843.205907 1348.22374,842.626527 C1348.79067,842.047146 1349.15511,841.583025 1349.31709,841.234151 C1349.32955,841.221691 1349.38561,841.022337 1349.48529,840.636084 C1349.56005,840.411807 1349.65973,840.274752 1349.78433,840.224912 C1349.99614,840.150154 1350.54125,840.327703 1351.41967,840.757566 C1352.29808,841.187429 1352.72482,841.489575 1352.6999,841.664012 Z" id="C"></path>
        </g>
    </g>
</svg>