<?xml version="1.0" encoding="UTF-8"?>
<svg width="10px" height="16px" viewBox="0 0 10 16" version="1.1" xmlns="http://www.w3.org/2000/svg" xmlns:xlink="http://www.w3.org/1999/xlink">
    <!-- Generator: Sketch 52.1 (67048) - http://www.bohemiancoding.com/sketch -->
    <title>B</title>
    <desc>Created with Sketch.</desc>
    <defs>
        <linearGradient x1="-2.22044605e-14%" y1="50%" x2="100%" y2="50%" id="linearGradient-1">
            <stop stop-color="#FAFF70" offset="0%"></stop>
            <stop stop-color="#FFD955" offset="100%"></stop>
        </linearGradient>
    </defs>
    <g id="V1.2" stroke="none" stroke-width="1" fill="none" fill-rule="evenodd">
        <g id="2.4.4-学生答题" transform="translate(-1465.000000, -785.000000)" fill="url(#linearGradient-1)">
            <path d="M1474.16611,793.727892 C1474.19046,793.910484 1474.20263,794.093074 1474.20263,794.275667 C1474.20263,795.286014 1473.7705,796.375468 1472.90623,797.544062 C1472.21238,798.481371 1471.36029,799.321286 1470.34994,800.06383 C1469.42481,800.733337 1468.79791,801.04374 1468.46925,800.995048 C1468.10406,800.946357 1467.45891,800.675515 1466.53377,800.182514 C1465.60863,799.689514 1465.10956,799.351722 1465.03652,799.16913 C1465.01217,799.120438 1465,799.065661 1465,799.004797 C1465,798.93176 1465.0213,798.837422 1465.06391,798.721779 C1465.10651,798.606137 1465.12781,798.517885 1465.12781,798.457021 L1465.12781,786.625068 C1465.12781,786.430302 1465.39561,786.332921 1465.93122,786.332921 C1466.17468,786.332921 1466.3877,786.357266 1466.57029,786.405957 C1467.14241,786.040772 1467.86364,785.715153 1468.734,785.429091 C1469.60436,785.143029 1470.34994,785 1470.97075,785 C1471.33594,785 1471.61895,785.051734 1471.81981,785.155203 C1472.02066,785.258672 1472.20629,785.438219 1472.37671,785.693849 C1472.59582,786.046862 1472.74798,786.26597 1472.83319,786.35118 C1472.85754,786.375526 1473.05839,786.539857 1473.43574,786.844178 C1473.65486,787.026771 1473.79484,787.221533 1473.85571,787.428472 C1473.9044,787.574546 1473.92874,787.732791 1473.92874,787.903211 C1473.92874,788.864866 1473.28968,789.911716 1472.01153,791.043791 C1473.31402,792.029792 1474.03221,792.924483 1474.16611,793.727892 Z M1470.97075,787.793656 C1470.94641,787.744964 1470.87946,787.720619 1470.7699,787.720619 C1470.48993,787.720619 1470.05171,787.866691 1469.45524,788.158839 C1468.85877,788.450988 1468.45707,788.730959 1468.25014,788.998762 L1468.25014,790.897718 C1469.0292,790.276902 1469.70174,789.643923 1470.26778,788.998762 C1470.83381,788.353601 1471.06814,787.951903 1470.97075,787.793656 Z M1471.62809,793.198375 C1471.31159,793.210548 1470.77599,793.362706 1470.02128,793.654855 C1469.2057,793.983522 1468.61532,794.306098 1468.25014,794.622592 L1468.25014,798.018801 C1469.04137,797.799689 1469.82042,797.130193 1470.58731,796.01029 C1471.3542,794.890388 1471.70112,793.953092 1471.62809,793.198375 Z" id="B"></path>
        </g>
    </g>
</svg>