<?xml version="1.0" encoding="UTF-8"?>
<svg width="9px" height="16px" viewBox="0 0 9 16" version="1.1" xmlns="http://www.w3.org/2000/svg" xmlns:xlink="http://www.w3.org/1999/xlink">
    <!-- Generator: Sketch 52.1 (67048) - http://www.bohemiancoding.com/sketch -->
    <title>F</title>
    <desc>Created with Sketch.</desc>
    <defs>
        <linearGradient x1="-1.11022302e-14%" y1="50%" x2="100%" y2="50%" id="linearGradient-1">
            <stop stop-color="#FF84BF" offset="0%"></stop>
            <stop stop-color="#FF758D" offset="100%"></stop>
        </linearGradient>
    </defs>
    <g id="V1.2" stroke="none" stroke-width="1" fill="none" fill-rule="evenodd">
        <g id="2.4.4-学生答题" transform="translate(-1466.000000, -874.000000)" fill="url(#linearGradient-1)">
            <path d="M1474.39915,876.034257 C1474.37519,876.22598 1474.29131,876.429683 1474.14752,876.645371 C1473.96778,876.897007 1473.76407,877.034806 1473.5364,877.058771 C1473.45252,877.070754 1473.34468,877.049785 1473.21287,876.995862 C1473.08106,876.94194 1472.97921,876.91498 1472.90731,876.91498 C1472.69163,876.91498 1472.17638,877.088726 1471.36156,877.436224 C1470.47484,877.807687 1469.83377,878.149188 1469.43835,878.460738 L1469.43835,881.749967 C1469.49826,881.726001 1469.77985,881.558246 1470.28312,881.246697 C1470.61864,881.042991 1470.88824,880.935149 1471.09195,880.923166 C1471.30764,880.911183 1471.70905,881.246693 1472.2962,881.929706 C1472.88335,882.612719 1473.16494,883.068054 1473.14098,883.295725 C1473.11701,883.511413 1472.99719,883.727098 1472.7815,883.942786 C1472.61374,884.110543 1472.44598,884.218386 1472.27823,884.266317 C1472.20633,884.290282 1472.11047,884.275304 1471.99064,884.221382 C1471.87082,884.16746 1471.78694,884.140499 1471.73901,884.140499 C1471.70306,884.140499 1471.66711,884.152482 1471.63117,884.176447 C1471.28367,884.320239 1470.97811,884.452047 1470.7145,884.571873 C1470.05545,884.87144 1469.63007,885.117082 1469.43835,885.308805 L1469.43835,887.932998 C1469.43835,888.040842 1469.50125,888.169654 1469.62707,888.319438 C1469.75289,888.469221 1469.8158,888.627989 1469.8158,888.795747 C1469.79183,889.466777 1469.4743,889.868191 1468.86318,890 C1468.19215,889.68845 1467.62298,889.346949 1467.15566,888.975486 C1466.6404,888.556092 1466.38278,888.190626 1466.38278,887.879076 L1466.38278,875.998309 C1466.38278,875.806587 1466.31388,875.611871 1466.17608,875.414157 C1466.03828,875.216443 1465.98136,875.069657 1466.00533,874.973795 C1466.04127,874.782073 1466.15511,874.59934 1466.34683,874.425591 C1466.53855,874.251842 1466.75424,874.152986 1466.99389,874.129021 C1467.10174,874.117038 1467.43125,874.287789 1467.98246,874.641278 C1468.53366,874.994767 1468.89913,875.189482 1469.07887,875.22543 L1471.056,874.416604 C1471.21177,874.296777 1471.48138,874.158978 1471.86483,874.003203 C1472.16439,873.967255 1472.66766,874.233866 1473.37464,874.803043 C1474.08161,875.37222 1474.42312,875.782621 1474.39915,876.034257 Z" id="F"></path>
        </g>
    </g>
</svg>