<?xml version="1.0" encoding="UTF-8"?>
<svg width="8px" height="16px" viewBox="0 0 8 16" version="1.1" xmlns="http://www.w3.org/2000/svg" xmlns:xlink="http://www.w3.org/1999/xlink">
    <!-- Generator: Sketch 52.1 (67048) - http://www.bohemiancoding.com/sketch -->
    <title>E</title>
    <desc>Created with Sketch.</desc>
    <defs>
        <linearGradient x1="100%" y1="50%" x2="-2.22044605e-14%" y2="50%" id="linearGradient-1">
            <stop stop-color="#B37FEB" offset="0%"></stop>
            <stop stop-color="#FFB8DA" offset="100%"></stop>
        </linearGradient>
    </defs>
    <g id="V1.2" stroke="none" stroke-width="1" fill="none" fill-rule="evenodd">
        <g id="2.4.4-学生答题" transform="translate(-1343.000000, -873.000000)" fill="url(#linearGradient-1)">
            <path d="M1350.92317,886.046819 C1350.88715,886.250901 1350.78211,886.469987 1350.60804,886.704082 C1350.43397,886.938176 1350.28091,887.079231 1350.14886,887.127251 C1350.11284,887.139256 1350.04682,887.118248 1349.95078,887.064226 C1349.85474,887.010204 1349.77671,886.983193 1349.71669,886.983193 C1349.69268,886.983193 1349.66867,886.989196 1349.64466,887.0012 C1349.27251,887.109244 1348.90036,887.2533 1348.52821,887.433373 C1347.63985,887.841539 1346.82353,888.363742 1346.07923,889 C1344.87875,888.507801 1344.22449,888.237695 1344.11645,888.189676 C1343.37215,887.865545 1343,887.625451 1343,887.469388 L1343,873.927971 C1343,873.843937 1343.14106,873.72389 1343.42317,873.567827 C1343.70528,873.411764 1343.91236,873.339736 1344.04442,873.351741 C1344.18848,873.363746 1344.47659,873.456782 1344.90876,873.630852 C1345.34094,873.804923 1345.69508,873.891957 1345.97119,873.891957 C1346.33133,873.891957 1346.79952,873.729894 1347.37575,873.405762 C1347.90396,873.093636 1348.23409,872.961585 1348.36615,873.009604 C1348.65426,873.105643 1349.08343,873.420766 1349.65366,873.954982 C1350.22389,874.489198 1350.53301,874.870347 1350.58103,875.09844 C1350.60504,875.206483 1350.494,875.392556 1350.2479,875.656663 C1350.0018,875.92077 1349.80072,876.052821 1349.64466,876.052821 C1349.5126,876.052821 1349.41657,876.034814 1349.35654,875.9988 C1349.29652,875.962785 1349.2545,875.95078 1349.23049,875.962785 C1348.79832,876.058824 1348.39616,876.172869 1348.02401,876.304922 C1347.13565,876.605044 1346.48139,876.953179 1346.06122,877.34934 L1346.06122,880.284514 C1346.48139,880.068426 1347.02761,879.84634 1347.69988,879.618247 C1347.89196,879.594238 1348.29712,879.861342 1348.91537,880.419568 C1349.53362,880.977794 1349.84274,881.364945 1349.84274,881.581032 C1349.84274,881.713086 1349.7587,881.869147 1349.59064,882.04922 C1349.42257,882.229293 1349.2605,882.343337 1349.10444,882.391357 C1348.98439,882.391357 1348.77431,882.403361 1348.47419,882.427371 C1348.018,882.511405 1347.21369,882.895555 1346.06122,883.579832 L1346.06122,885.470588 C1346.42137,885.254501 1346.91056,884.999401 1347.52881,884.705282 C1348.14706,884.411163 1348.52821,884.264106 1348.67227,884.264106 C1348.84034,884.264106 1349.2635,884.525208 1349.94178,885.047419 C1350.62005,885.56963 1350.94718,885.90276 1350.92317,886.046819 Z" id="E"></path>
        </g>
    </g>
</svg>